<svg xmlns="http://www.w3.org/2000/svg" xmlns:xlink="http://www.w3.org/1999/xlink" version="1.1" width="800" height="800" viewBox="55 0 710 800">
<defs>
<clipPath id="clip_0">
<path transform="matrix(1,0,0,-1,0,800)" d="M0 800H800V0H0Z"/>
</clipPath>
</defs>
<g id="layer_1" data-name="Layer 1">
<g clip-path="url(#clip_0)">
<path transform="matrix(1,0,0,-1,394.7671,229.01563)" d="M0 0C6.099 5.007 12.423-1.694 17.995-4.178 63.659-31.396 110.677-56.618 155.701-84.739 157.168-139.852 155.776-195.19 156.378-250.416 157.884-256.213 153.442-260.091 148.774-262.199 100.889-289.642 53.231-317.499 5.383-344.98-45.25-316.031-95.769-286.97-145.95-257.343-145.649-200.687-146.063-143.993-145.762-87.375-145.235-86.283-144.219-84.062-143.729-82.97-95.845-55.301-48.035-27.481 0 0M-227.452-36.591C-228.469-125.66-227.076-214.766-228.13-303.834-218.944-310.986-208.291-315.918-198.39-322.017-133.753-359.06-69.229-396.366-4.63-433.521 .038-435.818 5.421-440.524 10.353-436.082 86.358-392.715 162.025-348.707 237.956-305.265 238.256-215.707 238.822-126.036 237.692-36.478 159.993 7.68 82.97 53.118 5.044 96.899-72.655 52.779-149.79 7.642-227.452-36.591M-18.333 205.468H18.898C110.225 201.59 200.574 164.849 265.738 100.287 317.199 51.837 354.128-11.896 370.58-80.598 376.301-102.508 378.711-125.02 381.685-147.418V-184.649C377.77-278.537 338.882-371.294 271.083-436.947 207.086-503.203 117.19-541.263 25.75-547.437H-8.545C-101.491-543.483-193.421-505.387-258.848-438.717-326.233-374.532-365.045-283.807-371.219-191.463V-157.282C-368.208-96.748-352.133-36.403-321.452 16.112-272.777 101.115-189.92 166.505-95.016 191.84-69.982 198.955-44.12 202.306-18.333 205.468" fill="#335dd2"/>
<path transform="matrix(1,0,0,-1,394.7671,229.01563)" d="M0 0C-48.035-27.481-95.845-55.301-143.729-82.97-144.219-84.062-145.235-86.283-145.762-87.375-146.063-143.993-145.649-200.687-145.95-257.343-95.769-286.97-45.25-316.031 5.383-344.98 53.231-317.499 100.889-289.642 148.774-262.199 153.442-260.091 157.884-256.213 156.378-250.416 155.776-195.19 157.168-139.852 155.701-84.739 110.677-56.618 63.659-31.396 17.995-4.178 12.423-1.694 6.099 5.007 0 0M-227.452-36.591C-149.79 7.642-72.655 52.779 5.044 96.899 82.97 53.118 159.993 7.68 237.692-36.478 238.822-126.036 238.256-215.707 237.956-305.265 162.025-348.707 86.358-392.715 10.353-436.082 5.421-440.524 .038-435.818-4.63-433.521-69.229-396.366-133.753-359.06-198.39-322.017-208.291-315.918-218.944-310.986-228.13-303.834-227.076-214.766-228.469-125.66-227.452-36.591" fill="#ffffff"/>
</g>
</g>
</svg>