<?xml version="1.0" standalone="no"?>
<!DOCTYPE svg PUBLIC "-//W3C//DTD SVG 20010904//EN"
 "http://www.w3.org/TR/2001/REC-SVG-20010904/DTD/svg10.dtd">
<svg version="1.0" xmlns="http://www.w3.org/2000/svg"
 width="1024.000000pt" height="1024.000000pt" viewBox="-60 10 1024.000000 1024.000000"
 preserveAspectRatio="xMidYMid meet">

<g transform="translate(-100.000000,1100.000000) scale(0.100000,-0.100000)"
fill="#ffe8ff" stroke="none">
<path d="M5140 8499 c-255 -29 -463 -75 -668 -148 -221 -80 -522 -219 -522
-242 0 -4 25 -32 56 -60 30 -29 92 -97 136 -151 45 -54 83 -98 85 -98 3 0 16
8 29 19 36 28 262 128 377 166 117 39 287 78 434 100 250 37 691 3 908 -70
133 -46 342 -141 435 -200 l36 -23 43 52 c24 28 69 78 100 111 63 67 121 136
121 146 0 13 -96 73 -207 128 -276 136 -540 218 -828 256 -149 20 -422 27
-535 14z"/>
<path fill="#563964" d="M3311 8280 c-101 -126 -507 -512 -577 -548 l-34 -18 47 -39 c54 -44
306 -280 423 -395 42 -41 262 -257 490 -480 227 -223 510 -503 629 -623 119
-121 224 -223 234 -228 15 -8 30 3 90 68 40 43 81 87 93 98 154 150 439 422
449 427 9 5 -248 269 -796 818 -444 445 -812 810 -817 810 -10 0 -124 127
-152 168 -15 22 -16 21 -79 -58z"/>
<path d="M7265 8334 c-22 -35 -508 -520 -1704 -1704 -492 -487 -1286 -1279
-1765 -1760 -976 -981 -997 -1002 -1043 -1033 -18 -12 -32 -27 -31 -33 2 -5
55 -57 118 -115 63 -57 205 -193 315 -301 l200 -197 135 145 c74 80 293 299
485 486 193 188 636 627 986 977 837 836 1223 1218 1393 1376 77 72 363 353
637 626 551 550 879 857 953 893 l29 14 -56 35 c-76 49 -580 535 -618 596
l-15 24 -19 -29z"/>
<path d="M7640 7100 c-14 -14 -78 -75 -141 -137 l-115 -111 34 -59 c19 -32 69
-127 110 -211 62 -125 80 -154 101 -159 69 -17 273 43 307 91 20 29 18 57 -11
141 -39 113 -100 240 -167 347 -78 125 -85 131 -118 98z"/>
<path d="M2953 7043 c-66 -102 -92 -155 -152 -305 -87 -220 -117 -325 -168
-593 -27 -144 -28 -162 -28 -455 0 -270 3 -319 22 -425 27 -148 80 -333 139
-484 51 -131 182 -391 200 -398 6 -2 63 47 125 110 63 62 129 125 148 138 l33
25 -39 79 c-185 369 -235 581 -236 990 0 188 3 254 21 360 44 274 192 671 274
736 19 15 17 17 -49 74 -37 32 -107 96 -154 143 l-86 84 -50 -79z"/>
<path fill="#563964" d="M5804 5335 c-165 -166 -307 -304 -315 -307 -24 -8 54 -99 252 -293
101 -99 319 -313 484 -476 165 -162 413 -405 550 -538 297 -290 357 -350 453
-456 l72 -80 57 65 c170 193 533 531 594 552 9 3 -11 28 -56 69 -79 72 -114
106 -422 409 -120 118 -261 256 -313 307 -126 121 -978 981 -1012 1022 -14 17
-30 30 -35 30 -4 -1 -143 -138 -309 -304z"/>
<path d="M7605 5021 c-22 -13 -39 -38 -60 -87 -15 -38 -53 -118 -83 -179 l-55
-110 29 -20 c36 -25 170 -157 213 -210 l32 -40 20 25 c36 44 90 141 166 293
80 162 88 185 78 216 -13 42 -202 131 -277 131 -18 0 -47 -8 -63 -19z"/>
<path d="M4219 3788 c-6 -13 -65 -78 -131 -145 -66 -67 -118 -128 -116 -135 9
-27 387 -206 549 -259 378 -124 657 -159 1009 -129 339 29 721 145 1010 305
74 41 140 75 147 75 10 0 -69 79 -160 161 -22 19 -55 57 -75 84 -20 28 -37 52
-39 54 -2 3 -16 -5 -31 -16 -16 -12 -64 -39 -108 -61 -356 -177 -791 -249
-1199 -196 -171 22 -286 48 -448 104 -158 54 -218 80 -324 140 l-72 40 -12
-22z"/>
</g>
</svg>
