<svg width="194" height="181" viewBox="0 0 194 181" fill="none" xmlns="http://www.w3.org/2000/svg">
<g filter="url(#filter0_d_102_4)">
<path d="M179.973 1L107.893 54.4755L121.28 22.9262L179.973 1Z" fill="#E17726" stroke="#E17726" stroke-width="0.712817" stroke-linecap="round" stroke-linejoin="round"/>
<path d="M13.7439 1L85.1681 54.9816L72.4372 22.9262L13.7439 1Z" fill="#E27625" stroke="#E27625" stroke-width="0.712817" stroke-linecap="round" stroke-linejoin="round"/>
<path d="M154.062 124.966L134.887 154.348L175.917 165.632L187.643 125.615L154.062 124.966Z" fill="#E27625" stroke="#E27625" stroke-width="0.712817" stroke-linecap="round" stroke-linejoin="round"/>
<path d="M6.14526 125.615L17.7998 165.632L58.8295 154.348L39.7261 124.966L6.14526 125.615Z" fill="#E27625" stroke="#E27625" stroke-width="0.712817" stroke-linecap="round" stroke-linejoin="round"/>
<path d="M56.5842 75.3183L45.1506 92.6183L85.824 94.4289L84.4482 50.6406L56.5842 75.3183Z" fill="#E27625" stroke="#E27625" stroke-width="0.712817" stroke-linecap="round" stroke-linejoin="round"/>
<path d="M137.133 75.3183L108.834 50.1345L107.893 94.4289L148.566 92.6183L137.133 75.3183Z" fill="#E27625" stroke="#E27625" stroke-width="0.712817" stroke-linecap="round" stroke-linejoin="round"/>
<path d="M58.8296 154.348L83.3648 142.401L62.2297 125.907L58.8296 154.348Z" fill="#E27625" stroke="#E27625" stroke-width="0.712817" stroke-linecap="round" stroke-linejoin="round"/>
<path d="M110.352 142.401L134.887 154.348L131.487 125.907L110.352 142.401Z" fill="#E27625" stroke="#E27625" stroke-width="0.712817" stroke-linecap="round" stroke-linejoin="round"/>
<path d="M134.887 154.348L110.352 142.401L112.305 158.397L112.091 165.126L134.887 154.348Z" fill="#D5BFB2" stroke="#D5BFB2" stroke-width="0.712817" stroke-linecap="round" stroke-linejoin="round"/>
<path d="M58.8296 154.348L81.6255 165.126L81.4829 158.397L83.3648 142.401L58.8296 154.348Z" fill="#D5BFB2" stroke="#D5BFB2" stroke-width="0.712817" stroke-linecap="round" stroke-linejoin="round"/>
<path d="M82.0603 115.336L61.6523 109.334L76.0512 102.747L82.0603 115.336Z" fill="#233447" stroke="#233447" stroke-width="0.712817" stroke-linecap="round" stroke-linejoin="round"/>
<path d="M111.656 115.336L117.666 102.747L132.136 109.334L111.656 115.336Z" fill="#233447" stroke="#233447" stroke-width="0.712817" stroke-linecap="round" stroke-linejoin="round"/>
<path d="M58.8296 154.348L62.3723 124.966L39.7261 125.615L58.8296 154.348Z" fill="#CC6228" stroke="#CC6228" stroke-width="0.712817" stroke-linecap="round" stroke-linejoin="round"/>
<path d="M131.344 124.966L134.887 154.348L154.062 125.615L131.344 124.966Z" fill="#CC6228" stroke="#CC6228" stroke-width="0.712817" stroke-linecap="round" stroke-linejoin="round"/>
<path d="M148.566 92.6183L107.893 94.4289L111.656 115.336L117.666 102.747L132.136 109.334L148.566 92.6183Z" fill="#CC6228" stroke="#CC6228" stroke-width="0.712817" stroke-linecap="round" stroke-linejoin="round"/>
<path d="M61.6524 109.334L76.0512 102.747L82.0603 115.336L85.824 94.4289L45.1506 92.6183L61.6524 109.334Z" fill="#CC6228" stroke="#CC6228" stroke-width="0.712817" stroke-linecap="round" stroke-linejoin="round"/>
<path d="M45.1506 92.6183L62.2297 125.907L61.6524 109.334L45.1506 92.6183Z" fill="#E27525" stroke="#E27525" stroke-width="0.712817" stroke-linecap="round" stroke-linejoin="round"/>
<path d="M132.136 109.334L131.487 125.907L148.566 92.6183L132.136 109.334Z" fill="#E27525" stroke="#E27525" stroke-width="0.712817" stroke-linecap="round" stroke-linejoin="round"/>
<path d="M85.824 94.4289L82.0603 115.336L86.8362 140.014L87.8484 107.523L85.824 94.4289Z" fill="#E27525" stroke="#E27525" stroke-width="0.712817" stroke-linecap="round" stroke-linejoin="round"/>
<path d="M107.893 94.4289L105.94 107.452L106.881 140.014L111.656 115.336L107.893 94.4289Z" fill="#E27525" stroke="#E27525" stroke-width="0.712817" stroke-linecap="round" stroke-linejoin="round"/>
<path d="M111.656 115.336L106.881 140.014L110.352 142.401L131.487 125.907L132.136 109.334L111.656 115.336Z" fill="#F5841F" stroke="#F5841F" stroke-width="0.712817" stroke-linecap="round" stroke-linejoin="round"/>
<path d="M61.6523 109.334L62.2297 125.907L83.3647 142.401L86.8362 140.014L82.0603 115.336L61.6523 109.334Z" fill="#F5841F" stroke="#F5841F" stroke-width="0.712817" stroke-linecap="round" stroke-linejoin="round"/>
<path d="M112.091 165.126L112.305 158.397L110.502 156.807H83.2151L81.4829 158.397L81.6255 165.126L58.8296 154.348L66.7918 160.856L83.0012 172.076H110.716L126.925 160.856L134.887 154.348L112.091 165.126Z" fill="#C0AC9D" stroke="#C0AC9D" stroke-width="0.712817" stroke-linecap="round" stroke-linejoin="round"/>
<path d="M110.352 142.401L106.881 140.014H86.8362L83.3648 142.401L81.4829 158.397L83.2151 156.808H110.502L112.305 158.397L110.352 142.401Z" fill="#161616" stroke="#161616" stroke-width="0.712817" stroke-linecap="round" stroke-linejoin="round"/>
<path d="M183.009 57.9541L189.09 28.4292L179.973 1L110.352 52.6721L137.133 75.3183L174.976 86.3955L183.302 76.6227L179.681 74.021L185.469 68.7318L181.056 65.2604L186.844 60.8481L183.009 57.9541Z" fill="#763E1A" stroke="#763E1A" stroke-width="0.712817" stroke-linecap="round" stroke-linejoin="round"/>
<path d="M4.62695 28.4292L10.7786 57.9541L6.87233 60.8481L12.6604 65.2604L8.24806 68.7318L14.0361 74.021L10.415 76.6227L18.7407 86.3955L56.5842 75.3183L83.3647 52.6721L13.7439 1L4.62695 28.4292Z" fill="#763E1A" stroke="#763E1A" stroke-width="0.712817" stroke-linecap="round" stroke-linejoin="round"/>
<path d="M174.976 86.3955L137.133 75.3183L148.566 92.6183L131.487 125.907L154.062 125.615H187.643L174.976 86.3955Z" fill="#F5841F" stroke="#F5841F" stroke-width="0.712817" stroke-linecap="round" stroke-linejoin="round"/>
<path d="M56.5842 75.3183L18.7407 86.3955L6.14526 125.615H39.7261L62.2297 125.907L45.1506 92.6183L56.5842 75.3183Z" fill="#F5841F" stroke="#F5841F" stroke-width="0.712817" stroke-linecap="round" stroke-linejoin="round"/>
<path d="M107.893 94.4289L110.352 52.6721L121.279 22.9263H72.4373L83.3647 52.6721L85.824 94.4289L86.7649 107.595L86.8361 140.014H106.881L106.952 107.595L107.893 94.4289Z" fill="#F5841F" stroke="#F5841F" stroke-width="0.712817" stroke-linecap="round" stroke-linejoin="round"/>
</g>
<defs>
<filter id="filter0_d_102_4" x="0.270538" y="0.643524" width="193.176" height="179.789" filterUnits="userSpaceOnUse" color-interpolation-filters="sRGB">
<feFlood flood-opacity="0" result="BackgroundImageFix"/>
<feColorMatrix in="SourceAlpha" type="matrix" values="0 0 0 0 0 0 0 0 0 0 0 0 0 0 0 0 0 0 127 0" result="hardAlpha"/>
<feOffset dy="4"/>
<feGaussianBlur stdDeviation="2"/>
<feComposite in2="hardAlpha" operator="out"/>
<feColorMatrix type="matrix" values="0 0 0 0 0 0 0 0 0 0 0 0 0 0 0 0 0 0 0.25 0"/>
<feBlend mode="normal" in2="BackgroundImageFix" result="effect1_dropShadow_102_4"/>
<feBlend mode="normal" in="SourceGraphic" in2="effect1_dropShadow_102_4" result="shape"/>
</filter>
</defs>
</svg>
