<?xml version="1.0" encoding="utf-8"?>
<!-- Generator: Adobe Illustrator 25.2.0, SVG Export Plug-In . SVG Version: 6.00 Build 0)  -->
<svg version="1.1" id="katman_3" xmlns="http://www.w3.org/2000/svg" xmlns:xlink="http://www.w3.org/1999/xlink" x="0px" y="0px"
	 viewBox="60 70 110 5" style="enable-background:new 0 0 226.74 143.29;" xml:space="preserve">
<style type="text/css">
	#katman_3 .st0{fill:#5A5564;}
	#katman_3 .st1{fill:#F09242;}
	#katman_3 .st2{fill:#282138;}
</style>
<g id="Layer_2">
	<g id="Layer_1-2">
		<g id="Page-1">
			<g id="wbtc_colour">
				<path id="Shape" class="st0" d="M147.83,39.95l-3,3c14.84,16.23,14.84,41.09,0,57.32l3,3c16.51-17.91,16.51-45.48,0-63.39V39.95
					z"/>
				<path id="Shape-2" class="st0" d="M84.74,40.21c16.23-14.84,41.09-14.84,57.32,0l3-3c-17.91-16.51-45.48-16.51-63.39,0
					L84.74,40.21z"/>
				<path id="Shape-3" class="st0" d="M81.93,100.3c-14.82-16.22-14.82-41.07,0-57.29l-3-3c-16.51,17.91-16.51,45.48,0,63.39
					L81.93,100.3z"/>
				<path id="Shape-4" class="st0" d="M142.02,103.07c-16.23,14.84-41.09,14.84-57.32,0l-3,3c17.91,16.51,45.48,16.51,63.39,0
					L142.02,103.07z"/>
				<path id="Shape-5" class="st1" d="M132.31,61.64c-0.6-6.26-6-8.36-12.83-9v-8.62h-5.28v8.46c-1.39,0-2.81,0-4.22,0v-8.46h-5.24
					v8.68H94.03v5.65c0,0,3.9-0.07,3.84,0c1.46-0.16,2.79,0.86,3,2.32v23.76c-0.03,0.5-0.26,0.96-0.64,1.29
					c-0.37,0.33-0.86,0.5-1.36,0.46c0.07,0.06-3.84,0-3.84,0l-1,6.31h10.61v8.82h5.28v-8.69h4.22v8.65h5.29v-8.72
					c8.92-0.54,15.14-2.74,15.92-11.09c0.63-6.72-2.53-9.72-7.58-10.93C130.84,69.02,132.74,66.22,132.31,61.64z M124.91,80.42
					c0,6.56-11.24,5.81-14.82,5.81V74.59C113.67,74.6,124.91,73.57,124.91,80.42z M122.46,64.02c0,6-9.38,5.27-12.36,5.27V58.71
					C113.08,58.71,122.46,57.77,122.46,64.02z"/>
				<path id="Shape-6" class="st2" d="M113.36,126.28c-30.17-0.01-54.63-24.47-54.62-54.64s24.47-54.63,54.64-54.62
					c30.16,0.01,54.61,24.46,54.62,54.62c0.01,30.17-24.45,54.63-54.62,54.64C113.37,126.28,113.37,126.28,113.36,126.28z
					 M113.36,21.28c-27.8,0.02-50.32,22.58-50.3,50.38c0.02,27.8,22.58,50.32,50.38,50.3c27.78-0.02,50.29-22.54,50.3-50.32
					c0.01-27.8-22.52-50.35-50.32-50.36C113.4,21.28,113.38,21.28,113.36,21.28z"/>
			</g>
		</g>
	</g>
</g>
</svg>
